<svg width="100" height="100" viewBox="0 0 100 100" fill="none" xmlns="http://www.w3.org/2000/svg">
<circle cx="50" cy="50" r="50" fill="#9BB3AB"/>
<path d="M45.813 64.3333H53.853V71.8333H45.813V64.3333ZM36.273 42.6133C36.273 40.4132 36.593 38.4132 37.233 36.6133C37.913 34.8133 38.873 33.2733 40.113 31.9932C41.393 30.7132 42.913 29.7332 44.673 29.0532C46.473 28.3333 48.473 27.9733 50.673 27.9733C52.513 27.9733 54.213 28.2533 55.773 28.8133C57.373 29.3332 58.753 30.1132 59.913 31.1532C61.113 32.1532 62.053 33.4132 62.733 34.9333C63.413 36.4533 63.753 38.1733 63.753 40.0932C63.753 41.4933 63.593 42.7133 63.273 43.7533C62.993 44.7533 62.593 45.6333 62.073 46.3933C61.593 47.1133 61.033 47.7733 60.393 48.3733C59.753 48.9333 59.113 49.4933 58.473 50.0533C57.713 50.6933 57.013 51.3133 56.373 51.9133C55.733 52.5133 55.173 53.1933 54.693 53.9533C54.213 54.6733 53.833 55.5333 53.553 56.5333C53.313 57.5333 53.193 58.7533 53.193 60.1933H46.713C46.713 58.4333 46.793 56.9533 46.953 55.7533C47.153 54.5133 47.453 53.4333 47.853 52.5133C48.253 51.5933 48.733 50.7933 49.293 50.1133C49.893 49.3933 50.593 48.6933 51.393 48.0133C52.033 47.4533 52.633 46.9333 53.193 46.4533C53.793 45.9733 54.313 45.4533 54.753 44.8933C55.233 44.2933 55.593 43.6333 55.833 42.9133C56.113 42.1933 56.253 41.3333 56.253 40.3332C56.253 39.1333 56.033 38.1133 55.593 37.2732C55.193 36.3932 54.693 35.6932 54.093 35.1733C53.493 34.6533 52.853 34.2733 52.173 34.0332C51.493 33.7932 50.893 33.6732 50.373 33.6732C47.893 33.6732 46.053 34.4932 44.853 36.1333C43.693 37.7333 43.113 39.8933 43.113 42.6133H36.273Z" fill="white"/>
</svg>
